<svg width="32" height="32" viewBox="0 0 32 32" fill="none" xmlns="http://www.w3.org/2000/svg">
<path d="M5.99999 18C5.99999 19.9778 6.58648 21.9112 7.6853 23.5557C8.78411 25.2002 10.3459 26.4819 12.1732 27.2388C14.0004 27.9957 16.0111 28.1937 17.9509 27.8079C19.8907 27.422 21.6725 26.4696 23.0711 25.0711C24.4696 23.6725 25.422 21.8907 25.8078 19.9509C26.1937 18.0111 25.9957 16.0004 25.2388 14.1732C24.4819 12.3459 23.2002 10.7841 21.5557 9.6853C19.9112 8.58649 17.9778 8 16 8H12V13L5.99999 7L12 1V6H16C18.3734 6 20.6934 6.70379 22.6668 8.02236C24.6402 9.34094 26.1783 11.2151 27.0865 13.4078C27.9948 15.6005 28.2324 18.0133 27.7694 20.3411C27.3064 22.6689 26.1635 24.8071 24.4853 26.4853C22.807 28.1635 20.6688 29.3064 18.3411 29.7694C16.0133 30.2324 13.6005 29.9948 11.4078 29.0866C9.21508 28.1783 7.34094 26.6402 6.02236 24.6668C4.70378 22.6935 3.99999 20.3734 3.99999 18H5.99999Z" fill="black"/>
<path d="M19.64 22.13C19.198 22.1419 18.7595 22.0494 18.36 21.86C18.0031 21.6826 17.6969 21.4177 17.47 21.09C17.232 20.7086 17.0722 20.2837 17 19.84C16.8769 19.2887 16.8198 18.7247 16.83 18.16C16.821 17.5953 16.878 17.0314 17 16.48C17.0893 16.0331 17.2661 15.6083 17.52 15.23C17.7469 14.9023 18.0531 14.6374 18.41 14.46C18.8095 14.2705 19.248 14.178 19.69 14.19C20.1055 14.1584 20.5221 14.2337 20.9002 14.4087C21.2783 14.5838 21.6053 14.8527 21.85 15.19C22.3613 16.0786 22.6044 17.0962 22.55 18.12C22.6044 19.1437 22.3613 20.1614 21.85 21.05C21.6103 21.4096 21.2794 21.6991 20.8911 21.8888C20.5028 22.0786 20.071 22.1618 19.64 22.13ZM19.64 20.91C19.8429 20.9313 20.0474 20.89 20.2262 20.7916C20.4049 20.6933 20.5493 20.5427 20.64 20.36C20.8599 19.8881 20.9628 19.3701 20.94 18.85V17.47C20.964 16.953 20.861 16.438 20.64 15.97C20.5294 15.7987 20.3777 15.6578 20.1986 15.5603C20.0196 15.4627 19.8189 15.4116 19.615 15.4116C19.4111 15.4116 19.2105 15.4627 19.0314 15.5603C18.8523 15.6578 18.7006 15.7987 18.59 15.97C18.3729 16.439 18.2733 16.9538 18.3 17.47V18.85C18.2745 19.3693 18.374 19.8871 18.59 20.36C18.6835 20.5516 18.8358 20.7084 19.0247 20.8073C19.2136 20.9063 19.4292 20.9422 19.64 20.91Z" fill="black"/>
<path d="M12.62 17.42C12.9751 17.4552 13.3309 17.3592 13.62 17.15C13.7206 17.0683 13.801 16.9643 13.8548 16.8464C13.9086 16.7284 13.9343 16.5996 13.93 16.47V16.39C13.9374 16.2522 13.9143 16.1145 13.8625 15.9866C13.8106 15.8587 13.7313 15.7438 13.63 15.65C13.397 15.459 13.1007 15.3626 12.8 15.38C12.4866 15.3738 12.1778 15.4571 11.91 15.62C11.6338 15.791 11.401 16.0238 11.23 16.3L10.3 15.47C10.4359 15.291 10.5828 15.1206 10.74 14.96C10.9026 14.8047 11.084 14.6703 11.28 14.56C11.4987 14.436 11.7346 14.345 11.98 14.29C12.2642 14.2176 12.5568 14.1839 12.85 14.19C13.2081 14.1883 13.5647 14.2354 13.91 14.33C14.207 14.408 14.4857 14.5439 14.73 14.73C14.954 14.8979 15.1383 15.113 15.27 15.36C15.3929 15.6192 15.4545 15.9032 15.45 16.19C15.4518 16.418 15.4146 16.6446 15.34 16.86C15.2634 17.0501 15.1552 17.2259 15.02 17.38C14.8844 17.5253 14.7256 17.6469 14.55 17.74C14.3698 17.8318 14.1781 17.899 13.98 17.94V18C14.1989 18.0397 14.4111 18.1104 14.61 18.21C14.8024 18.3035 14.9754 18.4324 15.12 18.59C15.2641 18.7524 15.3791 18.9385 15.46 19.14C15.5435 19.3741 15.5842 19.6214 15.58 19.87C15.5875 20.1882 15.5189 20.5036 15.38 20.79C15.2456 21.072 15.0469 21.3186 14.8 21.51C14.5344 21.7148 14.2324 21.8674 13.91 21.96C13.5373 22.0726 13.1493 22.1265 12.76 22.12C12.4234 22.1245 12.0876 22.0876 11.76 22.01C11.494 21.9408 11.2385 21.8366 11 21.7C10.7945 21.575 10.6063 21.4238 10.44 21.25C10.2783 21.0792 10.1311 20.8953 10 20.7L11.07 19.89C11.1516 20.0374 11.2453 20.1779 11.35 20.31C11.455 20.4382 11.576 20.5525 11.71 20.65C11.8473 20.7469 11.9992 20.8212 12.16 20.87C12.3456 20.9206 12.5376 20.9442 12.73 20.94C13.089 20.9676 13.4455 20.8607 13.73 20.64C13.8433 20.5303 13.9322 20.3978 13.9908 20.2513C14.0494 20.1048 14.0764 19.9476 14.07 19.79V19.71C14.0735 19.5572 14.042 19.4057 13.9779 19.267C13.9138 19.1284 13.8187 19.0062 13.7 18.91C13.3849 18.7075 13.014 18.6095 12.64 18.63H11.88V17.42H12.62Z" fill="black"/>
</svg>
