<svg width="375" height="264" viewBox="0 0 375 264" fill="none" xmlns="http://www.w3.org/2000/svg">
<path fill-rule="evenodd" clip-rule="evenodd" d="M116.98 -273.364C193.121 -274.517 269.306 -372.899 332.437 -330.317C394.758 -288.281 346.138 -186.086 356.716 -111.661C364.813 -54.6907 398.352 -2.43616 387.057 53.9872C374.937 114.531 341.575 170.361 292.705 208.099C242.952 246.519 179.479 269.281 116.98 262.548C57.5657 256.148 17.7102 204.223 -33.234 172.986C-90.2298 138.039 -169.451 128.893 -198.894 68.8676C-229.075 7.33527 -200.071 -64.8193 -182.352 -131.025C-163.605 -201.067 -159.265 -292.72 -93.7838 -323.858C-26.9051 -355.66 42.9337 -272.241 116.98 -273.364Z" fill="#FFE1ED"/>
</svg>
