<svg width="21" height="24" viewBox="0 0 21 24" fill="none" xmlns="http://www.w3.org/2000/svg">
<path d="M9.05127 2.52563C6.13862 2.52563 3.77734 4.8868 3.77734 7.79956C3.77734 10.7122 6.13851 13.0735 9.05127 13.0735C11.9639 13.0735 14.3252 10.7123 14.3252 7.79956C14.3252 4.8868 11.9639 2.52563 9.05127 2.52563ZM6.16756 7.13577C5.78713 7.13577 5.47863 6.82726 5.47863 6.44683C5.47863 6.06629 5.78713 5.7579 6.16756 5.7579C6.54799 5.7579 6.8565 6.06629 6.8565 6.44683C6.8565 6.82726 6.54799 7.13577 6.16756 7.13577ZM10.8468 7.13577C10.4663 7.13577 10.1579 6.82726 10.1579 6.44683C10.1579 6.06629 10.4664 5.7579 10.8468 5.7579C11.2272 5.7579 11.5357 6.06629 11.5357 6.44683C11.5357 6.82726 11.2272 7.13577 10.8468 7.13577Z" fill="#FFD561"/>
<path d="M11.7562 24C11.5943 24 11.4538 23.8796 11.4328 23.7148C11.4184 23.6026 11.0926 20.9516 11.9394 19.6921C12.2979 19.1588 13.2169 19.1857 14.3799 19.2199C15.7509 19.2603 17.3042 19.3061 17.6488 18.3721C17.6961 18.2439 17.719 18.0933 17.7431 17.9338C17.8117 17.482 17.8967 16.921 18.5884 16.5356C18.5911 16.4313 18.4907 16.1737 18.3696 15.9827C18.3203 15.9048 18.3061 15.8093 18.3307 15.7204C18.3555 15.6316 18.4164 15.557 18.4989 15.5156C18.6977 15.4152 18.9184 15.2411 18.9441 15.1642C18.9498 15.0908 18.8383 14.9164 18.7487 14.7762C18.5904 14.5281 18.4109 14.2469 18.4199 13.9057C18.428 13.597 18.7282 13.4104 19.1435 13.1523C19.3118 13.0477 19.6071 12.8641 19.709 12.7486C19.4973 12.4743 19.3018 12.2354 19.1123 12.0038C18.4612 11.2083 17.9472 10.5799 17.491 9.37658C17.3849 9.0967 17.4987 8.75489 17.6305 8.35912C17.7416 8.02548 17.8676 7.64722 17.8206 7.394C17.6048 6.23246 17.2144 5.19422 16.6602 4.30832C16.5645 4.15554 16.6109 3.954 16.7638 3.85846C16.9165 3.76281 17.118 3.80927 17.2136 3.96206C17.8116 4.91771 18.2316 6.03223 18.4625 7.27473C18.5405 7.69369 18.3862 8.15671 18.2501 8.56544C18.1842 8.76338 18.0845 9.06264 18.1034 9.15078C18.5199 10.2489 18.9803 10.8116 19.6176 11.5903C19.8233 11.8419 20.0362 12.1019 20.2712 12.4085C20.3674 12.534 20.4052 12.6856 20.3779 12.8355C20.3125 13.1943 19.9121 13.4432 19.4882 13.7067C19.3536 13.7904 19.1597 13.9109 19.0776 13.9842C19.1013 14.1149 19.2016 14.272 19.299 14.4247C19.4494 14.6603 19.6198 14.9272 19.5925 15.2326C19.566 15.5286 19.307 15.7703 19.0814 15.9271C19.1871 16.1558 19.2852 16.4626 19.2172 16.7231C19.1743 16.8872 19.074 17.0156 18.9267 17.0946C18.4955 17.3259 18.4507 17.6219 18.3885 18.0315C18.3606 18.2164 18.3316 18.4075 18.2612 18.5981C17.7541 19.9724 15.8723 19.9167 14.3605 19.8725C13.6338 19.8511 12.6386 19.8218 12.4811 20.0562C11.8907 20.9344 11.9917 22.9353 12.0803 23.6321C12.1031 23.811 11.9766 23.9745 11.7977 23.9972C11.7839 23.9992 11.7699 24 11.7562 24ZM19.7531 12.8059H19.7542H19.7531Z" fill="#283182"/>
<path d="M3.72768 23.5832C3.67991 23.5832 3.63126 23.5727 3.58534 23.5505C3.4232 23.4718 3.35552 23.2766 3.43408 23.1143C3.45552 23.0699 5.56346 18.6389 3.57403 16.1066C1.7525 13.7877 0.654294 11.7317 0.216731 9.82073C-0.1242 8.33197 -0.0641314 6.93832 0.405642 5.43433C1.05801 3.34609 2.41706 1.76636 4.33609 0.866203C6.95722 -0.363239 10.5066 -0.279665 13.8308 1.08972C14.6294 1.41868 15.7741 2.07921 16.3723 2.85814C16.4822 3.00102 16.4553 3.20604 16.3122 3.31583C16.1692 3.42585 15.9644 3.39886 15.8545 3.25577C15.3684 2.62298 14.3629 2.01512 13.582 1.69334C10.4242 0.392403 7.07126 0.304151 4.61325 1.45731C2.8396 2.28945 1.63356 3.69289 1.02863 5.62901C-0.188512 9.52572 1.89179 12.9083 4.08744 15.7031C5.02361 16.8949 5.30556 18.611 4.90282 20.666C4.60455 22.1873 4.045 23.3505 4.02138 23.3992C3.96501 23.5155 3.84869 23.5832 3.72768 23.5832Z" fill="#283182"/>
<path d="M8.28984 13.3998C5.20177 13.3998 2.68945 10.8875 2.68945 7.79938C2.68945 4.71141 5.20177 2.1991 8.28984 2.1991C11.3778 2.1991 13.8901 4.71141 13.8901 7.79938C13.8901 10.8875 11.3778 13.3998 8.28984 13.3998ZM8.28984 2.85201C5.56185 2.85201 3.34237 5.07138 3.34237 7.79938C3.34237 10.5274 5.56185 12.7468 8.28984 12.7468C11.0178 12.7468 13.2372 10.5274 13.2372 7.79938C13.2372 5.07138 11.0179 2.85201 8.28984 2.85201Z" fill="#283182"/>
<path d="M8.28963 11.0718C7.08021 11.0718 5.97178 10.46 5.32484 9.43523C5.22865 9.28278 5.27413 9.08114 5.4267 8.98483C5.57905 8.88874 5.78069 8.93412 5.8771 9.08669C6.40368 9.92089 7.30568 10.4189 8.28974 10.4189C9.27379 10.4189 10.1757 9.92089 10.7023 9.08669C10.7988 8.93434 11.0003 8.88885 11.1527 8.98483C11.3051 9.08114 11.3506 9.28267 11.2545 9.43523C10.6074 10.46 9.49916 11.0718 8.28963 11.0718Z" fill="#283182"/>
<path d="M10.6297 7.46207C10.0697 7.46207 9.61426 7.00656 9.61426 6.44668C9.61426 5.88681 10.0698 5.4314 10.6297 5.4314C11.1895 5.4314 11.645 5.88691 11.645 6.44668C11.645 7.00667 11.1896 7.46207 10.6297 7.46207ZM10.6297 6.08431C10.4298 6.08431 10.2672 6.24689 10.2672 6.44668C10.2672 6.64658 10.4298 6.80916 10.6297 6.80916C10.8296 6.80916 10.9921 6.64658 10.9921 6.44668C10.9921 6.24689 10.8296 6.08431 10.6297 6.08431Z" fill="#283182"/>
<path d="M5.94996 7.46207C5.38998 7.46207 4.93457 7.00656 4.93457 6.44668C4.93457 5.88681 5.39009 5.4314 5.94996 5.4314C6.50984 5.4314 6.96536 5.88691 6.96536 6.44668C6.96536 7.00667 6.50995 7.46207 5.94996 7.46207ZM5.94996 6.08431C5.75006 6.08431 5.58749 6.24689 5.58749 6.44668C5.58749 6.64658 5.75006 6.80916 5.94996 6.80916C6.14986 6.80916 6.31244 6.64658 6.31244 6.44668C6.31244 6.24689 6.14986 6.08431 5.94996 6.08431Z" fill="#283182"/>
</svg>
