<svg width="26" height="24" viewBox="0 0 26 24" fill="none" xmlns="http://www.w3.org/2000/svg">
<path d="M20.8326 14.8779C20.8326 14.8779 18.8898 14.0699 18.4497 13.6864C18.0097 13.303 17.8648 8.62409 17.5824 7.74557L17.0041 8.06934C13.2333 9.44982 11.3409 7.22278 11.3409 7.22278C10.5457 7.52583 9.55624 7.79395 9.39689 8.28974C9.11455 9.16826 9.05251 13.303 8.61248 13.6864C8.17234 14.0698 6.22951 14.8779 6.22951 14.8779C5.86926 15.0579 5.44003 15.0471 5.09543 14.8387C5.17467 15.1954 5.18613 15.6534 5.4559 15.745C5.72942 15.8378 5.8362 15.7382 6.12371 15.7967C4.76582 16.2017 4.65474 17.5638 5.03559 17.985C5.55265 18.5568 6.82525 19.2563 8.55903 19.9185L8.08087 20.6519C7.70818 21.2103 7.43675 21.9383 7.43675 21.9383C7.43675 21.9383 9.5375 21.8408 12.785 21.2322C12.785 21.2322 15.6986 22.091 19.2996 21.943C19.4635 21.9363 19.5786 21.7821 19.5266 21.6266C19.3777 21.1814 19.0729 20.3601 18.6982 19.8419C19.1624 19.663 19.4613 19.529 19.4613 19.529C20.704 18.989 21.6102 18.4455 22.0266 17.985C22.2587 17.7282 22.5264 17.2942 22.1941 16.4207C21.609 16.3457 21.2805 16.2367 20.5823 15.7967C20.4158 15.6107 20.6346 15.0751 20.8326 14.8779ZM10.7564 16.0928L10.5669 16.5661C10.5669 16.5661 8.62075 16.0775 7.22759 15.8971L7.30859 15.8724C7.30859 15.8724 9.26376 15.3498 9.64792 15.1925C10.032 15.0351 10.7024 11.4859 10.7024 11.4859L11.0358 13.3043C11.2075 14.2416 11.1107 15.2082 10.7564 16.0928ZM16.3057 16.0928C15.9514 15.2082 15.8546 14.2416 16.0264 13.3042L16.3598 11.4858C16.3598 11.4858 17.0302 15.035 17.4143 15.1924C17.6367 15.2835 18.3854 15.497 18.9765 15.6606C18.1704 15.7967 16.3057 16.0928 16.3057 16.0928Z" fill="#C9E084"/>
<path d="M25.4091 24H0.330611C0.217104 24 0.111642 23.9418 0.0510321 23.8459C-0.00957809 23.75 -0.016631 23.6295 0.0321878 23.5272L1.53753 20.3706C1.59241 20.2555 1.70856 20.1823 1.83595 20.1823H5.99943C6.18203 20.1823 6.33003 20.3303 6.33003 20.5129C6.33003 20.6955 6.18203 20.8435 5.99943 20.8435H2.04456L0.854614 23.3388H24.8851L23.6952 20.8435H19.9605C19.7779 20.8435 19.6299 20.6955 19.6299 20.5129C19.6299 20.3303 19.7779 20.1823 19.9605 20.1823H23.9037C24.0311 20.1823 24.1472 20.2555 24.2021 20.3706L25.7075 23.5272C25.7563 23.6295 25.7492 23.7499 25.6886 23.8459C25.6281 23.9417 25.5226 24 25.4091 24Z" fill="#283182"/>
<path d="M13.8378 19.3024C13.7221 19.3024 13.6099 19.2416 13.5492 19.1336C13.4598 18.9744 13.5165 18.7729 13.6756 18.6834C14.9967 17.9419 16.806 16.9264 18.3905 16.8076C18.5711 16.7927 18.7313 16.9305 18.7449 17.1125C18.7586 17.2946 18.6222 17.4533 18.4401 17.4669C17.0018 17.5748 15.2665 18.5489 13.9994 19.2601C13.9481 19.2888 13.8926 19.3024 13.8378 19.3024Z" fill="#283182"/>
<path d="M23.0682 14.1101C22.7479 13.8732 22.1525 13.7202 21.1345 14.3355C20.8924 14.4819 20.5801 14.4919 20.3196 14.3618C20.3127 14.3583 20.3057 14.3551 20.2986 14.3523C19.5756 14.0515 18.328 13.4843 18.0171 13.2261C17.8389 12.9519 17.699 11.3106 17.6151 10.3266C17.5256 9.27656 17.4482 8.36961 17.3191 7.96815C17.2082 7.62289 16.8626 7.29725 16.2625 6.97282C16.1019 6.88587 15.9014 6.94571 15.8146 7.10638C15.7277 7.26695 15.7875 7.46751 15.9481 7.55435C16.1938 7.68725 16.358 7.80186 16.4687 7.89663C13.9601 8.63013 12.0772 7.53495 11.2838 6.93194C11.4774 6.86769 11.672 6.80862 11.8622 6.75661C12.005 6.7176 12.1046 6.58822 12.1057 6.44011L12.1144 5.22967C12.4106 5.39233 12.6916 5.48203 12.857 5.48203C13.0273 5.48203 13.32 5.38682 13.6258 5.21501L13.6347 6.44022C13.6358 6.58844 13.7353 6.71782 13.8782 6.75672C13.8833 6.75815 14.3928 6.898 14.9848 7.12369C15.0235 7.13845 15.0633 7.1454 15.1023 7.1454C15.2356 7.1454 15.3612 7.06429 15.4115 6.93238C15.4765 6.76179 15.3907 6.57081 15.2203 6.50568C14.8472 6.36363 14.5095 6.25498 14.2941 6.18952L14.2834 4.71283C14.5632 4.42113 14.7674 4.05846 14.7674 3.64532C14.7674 3.51606 14.7695 3.37235 14.7716 3.22017C14.7893 1.98361 14.7704 1.00448 14.3645 0.586266C13.8023 0.00661197 12.8955 0 12.8571 0C12.8188 0 11.912 0.00661197 11.3497 0.586266C10.9437 1.00459 10.9249 1.98372 10.9426 3.22017C10.9448 3.37246 10.9468 3.51606 10.9468 3.64532C10.9468 4.07102 11.1639 4.44295 11.4568 4.73895L11.4463 6.18797C10.6602 6.42182 8.70509 7.08501 8.42122 7.96815C8.29217 8.36972 8.21481 9.27656 8.12522 10.3266C8.04125 11.3106 7.9014 12.9517 7.72321 13.2261C7.41244 13.4842 6.16475 14.0514 5.44173 14.3523C5.43479 14.3551 5.42773 14.3583 5.42079 14.3618C5.16028 14.492 4.84808 14.482 4.60575 14.3354C3.58805 13.7203 2.99252 13.8732 2.67217 14.1101C2.52539 14.2185 2.49431 14.4256 2.60286 14.5724C2.71129 14.7193 2.91847 14.75 3.06515 14.6417C3.285 14.4793 3.72183 14.5738 4.26358 14.9012C4.49985 15.0442 4.76543 15.1161 5.03311 15.1161C5.26133 15.1161 5.4911 15.0637 5.70577 14.9586C5.9524 14.8557 7.70855 14.1162 8.16886 13.7153C8.49274 13.4331 8.60514 12.4832 8.78422 10.3829C8.86312 9.45762 8.94478 8.50075 9.0509 8.17059C9.1427 7.88506 9.78539 7.5138 10.5668 7.19587C11.059 7.61827 12.6298 8.7962 14.8398 8.7962C15.4365 8.7962 16.0799 8.70914 16.7607 8.49932C16.834 8.94938 16.8961 9.67483 16.9565 10.3829C17.1355 12.4833 17.2479 13.4332 17.5718 13.7152C18.0321 14.1163 19.7882 14.8558 20.0349 14.9586C20.2495 15.0637 20.4792 15.1161 20.7076 15.1161C20.9752 15.1161 21.2407 15.0442 21.477 14.9013C22.0188 14.5737 22.4556 14.4793 22.6755 14.6418C22.8221 14.7501 23.0293 14.7194 23.1378 14.5725C23.246 14.4257 23.215 14.2186 23.0682 14.1101ZM11.8242 1.04657C12.1849 0.674757 12.8346 0.661423 12.8576 0.661092C12.8796 0.661423 13.5304 0.67619 13.8898 1.04657C14.1375 1.3018 14.1199 2.54354 14.1104 3.21069C14.1082 3.36629 14.1061 3.51319 14.1061 3.64532C14.1061 4.2976 13.0631 4.81047 12.8589 4.82083C12.6509 4.81047 11.6079 4.2976 11.6079 3.64532C11.6079 3.51319 11.6058 3.36629 11.6036 3.21069C11.5941 2.54354 11.5765 1.30191 11.8242 1.04657Z" fill="#283182"/>
<path d="M19.2738 21.6026C19.0948 21.1226 18.4462 19.5506 17.6135 19.4748C17.2689 19.4427 16.876 19.5247 16.4206 19.6191C15.8527 19.7366 15.2087 19.8695 14.501 19.8193C14.0254 19.7852 13.1261 19.2803 12.1743 18.7457C10.7311 17.9352 8.9352 16.9263 7.34842 16.8074C7.16406 16.7925 7.00768 16.9303 6.99402 17.1123C6.98035 17.2944 7.11678 17.4532 7.29894 17.4667C8.73926 17.5747 10.4644 18.5437 11.8505 19.3223C12.9569 19.9436 13.8306 20.4344 14.4539 20.4788C15.2532 20.5363 15.9748 20.3866 16.5548 20.2666C16.9584 20.1828 17.307 20.1107 17.5536 20.1331C17.7454 20.1507 18.1354 20.6513 18.4716 21.3911C17.3752 21.3832 14.5404 21.2747 11.3916 20.4566C7.67616 19.4912 5.27676 18.2694 4.61975 17.5429C4.38998 17.2888 4.45202 16.9875 4.54437 16.7792C4.75298 16.3093 5.27566 15.9412 5.73432 15.9412C6.92338 15.9412 9.79641 16.6591 9.82529 16.6664C9.98585 16.7066 10.1478 16.6209 10.2097 16.4724C10.2104 16.471 10.4022 15.9953 10.4022 15.9953C10.7802 15.0516 10.883 14.0241 10.6997 13.0242L10.0335 9.39015C10.0005 9.21041 9.82727 9.0914 9.64863 9.12457C9.46901 9.15752 9.3501 9.32976 9.38305 9.50939L9.70473 11.2641C9.42956 12.707 9.02193 14.373 8.81332 14.6845C8.4912 14.8024 7.25398 15.1534 6.56479 15.3433C6.25259 15.3041 5.96673 15.2799 5.73432 15.2799C5.18122 15.2799 4.61049 15.5833 4.23052 16.0449C3.37944 16.3139 2.75714 16.1505 2.38533 15.9649C2.64143 15.8082 2.93589 15.5764 3.14527 15.2555C3.245 15.1025 3.20191 14.8977 3.04895 14.798C2.89599 14.6984 2.69124 14.7414 2.59151 14.8943C2.27678 15.3769 1.63982 15.5976 1.6342 15.5995C1.52708 15.6351 1.44565 15.723 1.41821 15.8325C1.39066 15.9419 1.42085 16.0579 1.49843 16.14C1.53326 16.177 2.18608 16.8504 3.36225 16.8503C3.5119 16.8503 3.67103 16.8379 3.83766 16.8134C3.7366 17.2472 3.837 17.6628 4.12925 17.9859C5.02132 18.9724 7.85479 20.2165 11.1873 21.086C9.41688 21.3388 7.98329 21.3858 7.27271 21.3908C7.38049 21.1559 7.52772 20.865 7.69478 20.6146C7.79617 20.4628 7.75528 20.2576 7.60332 20.1562C7.45146 20.0547 7.24627 20.0958 7.14488 20.2476C6.75532 20.8314 6.47762 21.5708 6.46605 21.602C6.42891 21.7014 6.4418 21.8127 6.50076 21.9011C6.55972 21.9895 6.65758 22.044 6.7637 22.0479C6.78706 22.0488 6.92999 22.0535 7.17464 22.0535C7.93259 22.0535 10.5478 21.8578 12.896 21.4763C15.513 21.9918 17.6751 22.0537 18.5558 22.0537C18.8024 22.0537 18.9487 22.0489 18.9763 22.0479C19.0825 22.044 19.1802 21.9895 19.2393 21.9011C19.298 21.8133 19.3109 21.702 19.2738 21.6026ZM9.11185 15.278C9.24729 15.2225 9.53248 15.1038 10.0211 12.9903L10.0492 13.1437C10.2101 14.0207 10.1199 14.9219 9.78826 15.7497L9.70539 15.9566C9.363 15.8745 8.7505 15.7322 8.08247 15.5992C8.52492 15.4727 8.94479 15.3466 9.11185 15.278Z" fill="#283182"/>
<path d="M24.3212 15.8328C24.2938 15.7234 24.2123 15.6354 24.1052 15.5999C24.0988 15.5976 23.461 15.3746 23.1479 14.8947C23.0482 14.7417 22.8433 14.6986 22.6905 14.7984C22.5375 14.8981 22.4944 15.103 22.5941 15.2558C22.8031 15.5763 23.0973 15.8081 23.3533 15.9647C22.9809 16.1503 22.3582 16.3137 21.5089 16.0453C21.129 15.5837 20.5583 15.2803 20.0051 15.2803C19.7792 15.2803 19.5028 15.303 19.2007 15.3402C18.462 15.1388 17.233 14.797 16.9261 14.6847C16.7174 14.3732 16.3099 12.7072 16.0347 11.2643L16.3564 9.50963C16.3893 9.33 16.2704 9.15776 16.0908 9.12481C15.9114 9.09164 15.7389 9.21076 15.706 9.39039L15.0397 13.0245C14.8564 14.0243 14.9593 15.0517 15.3372 15.9956L15.4197 16.2015C13.404 17.2779 11.1249 16.5186 11.0877 16.5057C10.9154 16.4455 10.727 16.5369 10.6669 16.7092C10.6069 16.8817 10.6979 17.0701 10.8704 17.1302C10.9335 17.1521 11.8001 17.4459 12.963 17.4459C13.8627 17.4459 14.94 17.2691 15.9593 16.6554C16.3278 16.5644 18.897 15.9414 20.0051 15.9414C20.4637 15.9414 20.9864 16.3094 21.195 16.7793C21.2875 16.9876 21.3494 17.2889 21.1197 17.543C20.7384 17.9648 19.8677 18.4841 18.668 19.0055C18.5005 19.0782 18.4237 19.2729 18.4966 19.4403C18.5506 19.565 18.6722 19.6394 18.7999 19.6394C18.8438 19.6394 18.8887 19.6305 18.9314 19.6118C19.8399 19.2171 21.0421 18.6146 21.6102 17.9864C21.9024 17.6631 22.0028 17.2476 21.9018 16.8136C22.0683 16.8382 22.2275 16.8507 22.3772 16.8507C23.5531 16.8507 24.2062 16.1774 24.241 16.1405C24.3186 16.0583 24.3488 15.9422 24.3212 15.8328ZM16.0339 15.9567L15.951 15.7498C15.6194 14.9219 15.5292 14.0208 15.6901 13.1438L15.7182 12.9904C16.2068 15.104 16.492 15.2227 16.6275 15.2783C16.7945 15.3467 17.2143 15.4728 17.6567 15.5993C16.9887 15.7322 16.3759 15.8746 16.0339 15.9567Z" fill="#283182"/>
</svg>
