<svg width="25" height="24" viewBox="0 0 25 24" fill="none" xmlns="http://www.w3.org/2000/svg">
<path d="M17.9443 16.3778C17.9443 16.3778 18.3879 17.1101 19.094 17.6579C19.3832 17.327 22.7575 14.6704 23.6578 8.28308C21.9579 13.5712 17.9443 16.3778 17.9443 16.3778Z" fill="#FFD561"/>
<path d="M1.82272 6.24353C1.61164 12.4868 5.06155 17.8898 7.46314 18.7172C8.33499 19.0176 9.5033 18.8063 10.9064 18.9752C13.368 19.2715 14.8259 19.4818 17.4287 18.4184C16.7119 16.0321 13.3979 18.1137 9.95455 16.8405C7.02717 15.758 3.86081 13.3534 2.64064 10.2692C2.85705 9.80239 3.66362 9.31121 4.64136 9.31121C3.02366 8.25026 2.03381 6.60753 1.82272 6.24353Z" fill="#FFD561"/>
<path d="M24.213 0.918033C24.0525 0.889047 23.8983 0.995132 23.869 1.15593L22.5818 8.21125C21.9703 10.1161 20.8754 12.5423 18.974 14.3782C17.9337 13.832 16.4087 13.9761 15.0584 14.1052C14.8638 14.1237 14.6726 14.142 14.4864 14.1579C14.3236 14.1718 14.203 14.3151 14.2169 14.4777C14.2309 14.6404 14.3726 14.7601 14.5367 14.7473C14.7248 14.7312 14.9182 14.7127 15.1146 14.6939C16.2909 14.5815 17.6083 14.4572 18.4982 14.8099C18.1348 15.1197 17.7458 15.4084 17.3273 15.6684C16.3207 15.2721 15.1127 15.3238 15.0385 15.3276C14.8755 15.3357 14.7497 15.4744 14.7577 15.6377C14.7658 15.8009 14.9076 15.929 15.0678 15.9184C15.7092 15.888 17.4799 15.9962 17.9635 16.8734C18.3938 17.6539 18.4034 19.1741 18.4097 20.1801C18.4133 20.768 18.4177 21.0837 18.4697 21.2748C18.5267 21.4838 18.6966 21.7644 18.9115 22.1195C19.1053 22.4396 19.5532 23.1794 19.5133 23.3922C19.4474 23.4196 19.2942 23.4176 19.0585 23.3268C18.4866 23.107 17.8259 22.5316 17.699 22.1431C17.5897 21.808 17.4376 20.9735 17.2905 20.1665C17.0977 19.1089 16.9729 18.4473 16.8668 18.1781C16.2556 16.6268 13.7229 16.9551 13.569 16.9768C12.7437 17.0751 11.8995 17.0221 11.0589 16.8405C12.0004 16.5217 12.2839 16.2145 12.3367 15.9917C12.3797 15.8104 12.3114 15.6291 12.1493 15.4942C11.5867 15.0263 10.6842 14.9227 9.46624 15.1863C9.30662 15.2208 9.20527 15.3783 9.23977 15.5379C9.27428 15.6975 9.43183 15.7996 9.59135 15.7643C10.271 15.6174 11.1754 15.5262 11.705 15.8985C11.4731 16.0762 10.7346 16.3485 9.96777 16.5331C7.99091 15.8436 6.09036 14.4731 4.57087 12.6919C4.97184 12.3635 5.4508 11.7136 5.18263 10.5716C5.14527 10.4125 4.98545 10.3144 4.82711 10.3513C4.66808 10.3886 4.56939 10.5479 4.60676 10.7068C4.79536 11.5096 4.52522 11.9719 4.19622 12.236C3.72998 11.643 3.30505 11.0107 2.93267 10.3467C3.02012 10.1827 3.3716 9.60691 3.99569 9.60691C4.88065 9.60691 5.61653 9.95267 6.18343 10.6346C6.81383 11.393 7.117 12.9765 6.83118 13.3981C6.73949 13.5333 6.77489 13.7172 6.91005 13.8089C6.96093 13.8434 7.0187 13.8599 7.07579 13.8599C7.17063 13.8599 7.2637 13.8144 7.32089 13.7301C7.82153 12.9915 7.35322 11.1166 6.63824 10.2565C6.42351 9.99812 6.18846 9.77984 5.9341 9.60168C5.98053 9.61115 6.02677 9.62061 6.07429 9.63018C6.39738 9.69505 6.7316 9.76229 7.05469 9.8664C7.79965 10.1065 8.21827 11.3642 8.5238 12.2827C8.75806 12.9863 8.91501 13.4561 9.20783 13.6221C9.2097 13.6232 9.21108 13.6247 9.21296 13.6258C9.25782 13.6521 10.3301 14.2741 11.9014 14.6059C12.3421 14.699 12.7837 14.7604 13.2143 14.7885C13.2208 14.789 13.2274 14.7892 13.2338 14.7892C13.3883 14.7892 13.5185 14.6691 13.5286 14.5126C13.5393 14.3497 13.4157 14.2089 13.2527 14.1983C12.8503 14.1719 12.4367 14.1143 12.0235 14.0271C10.5514 13.7163 9.52214 13.1214 9.51189 13.1154C9.51031 13.1145 9.50854 13.114 9.50686 13.1131C9.50508 13.1121 9.5037 13.1108 9.50193 13.1099C9.39151 13.017 9.21444 12.4851 9.08489 12.096C8.7201 10.9997 8.26598 9.6354 7.2358 9.30344C6.88067 9.18908 6.51401 9.11543 6.19043 9.05036C5.9265 8.99742 5.67727 8.94723 5.49172 8.88591C5.34462 8.8373 5.23015 8.70095 5.08522 8.52842C4.94936 8.36653 4.79526 8.18305 4.57629 8.03723C4.15284 7.75536 3.6585 7.64878 3.25418 7.7523C3.05286 7.80387 2.87628 7.90492 2.73026 8.04906C2.05215 7.25215 1.53356 6.35516 1.41732 6.14812L0.588658 0.25461C0.565982 0.0927229 0.415038 -0.0197702 0.254531 0.00290587C0.0928408 0.0256805 -0.0198494 0.175244 0.00292524 0.337033L0.836024 6.25795C0.824982 6.5275 0.76563 8.54597 1.32977 11.0087C2.12048 14.4608 3.77731 17.1076 6.12152 18.6632C6.56666 18.9585 7.7681 19.0743 9.41704 19.2054C10.0119 19.2527 10.5738 19.2975 10.8244 19.3487C11.6264 19.5128 12.3997 19.5947 13.1417 19.5947C14.332 19.5946 15.4418 19.3836 16.4599 18.9631C16.5379 19.3358 16.6266 19.8214 16.7087 20.2726C16.8663 21.1371 17.015 21.9535 17.137 22.3268C17.3368 22.939 18.1822 23.6237 18.8464 23.879C19.0561 23.9596 19.2458 24 19.4141 24C19.5677 24 19.7035 23.9664 19.8206 23.8991C19.9536 23.8229 20.0443 23.7032 20.0831 23.5531C20.1908 23.1358 19.8753 22.5687 19.4178 21.813C19.2575 21.5484 19.0758 21.2484 19.0407 21.1192C19.0065 20.9936 19.0039 20.5782 19.0013 20.1764C18.997 19.4812 18.9912 18.6279 18.8704 17.8618C19.1342 18.3206 19.5544 19.077 19.7163 19.5124C19.9401 20.1145 20.8199 20.6969 21.5012 20.8629C21.6496 20.8991 21.7894 20.9171 21.9192 20.9171C22.1918 20.9171 22.4204 20.838 22.5925 20.6817C22.9463 20.3609 22.5978 19.9383 22.1943 19.4489C21.9234 19.1203 21.5861 18.7113 21.3096 18.2245C21.1137 17.8801 20.9463 17.4488 20.7845 17.0316C20.7453 16.9308 20.7063 16.8303 20.667 16.7313C20.6069 16.5796 20.4351 16.5054 20.283 16.5654C20.1312 16.6256 20.0569 16.7976 20.1171 16.9495C20.1559 17.0471 20.1943 17.1462 20.2329 17.2457C20.4026 17.6827 20.578 18.1346 20.7952 18.5168C21.0971 19.048 21.4524 19.479 21.7379 19.8252C21.8708 19.9864 22.0289 20.1781 22.1031 20.2968C21.9925 20.3367 21.8312 20.3346 21.6412 20.2881C21.0287 20.1388 20.3906 19.6288 20.2707 19.3062C20.0095 18.6035 19.1857 17.2276 19.1508 17.1694C19.15 17.168 19.1489 17.167 19.148 17.1657C22.451 13.9365 23.1221 8.66477 23.162 8.3266L24.4509 1.26192C24.4803 1.10141 24.3737 0.947315 24.213 0.918033ZM3.40138 8.32512C3.64224 8.2635 3.9671 8.34158 4.24897 8.5293C4.39745 8.62819 4.51181 8.76435 4.63288 8.90858C4.6879 8.97415 4.744 9.04001 4.80345 9.10321C4.54691 9.04533 4.27786 9.01546 3.99588 9.01546C3.92007 9.01546 3.84731 9.02108 3.77711 9.03064C3.55607 8.88118 3.33877 8.69287 3.13074 8.48444C3.20577 8.40498 3.29539 8.35223 3.40138 8.32512ZM3.12207 9.27751C2.90586 9.41821 2.73874 9.59429 2.61757 9.75164C2.31825 9.15339 2.06063 8.53354 1.8528 7.89763C2.21345 8.37974 2.65021 8.88778 3.12207 9.27751ZM10.943 18.769C10.6569 18.7105 10.104 18.6666 9.46387 18.6156C9.05817 18.5833 8.57329 18.5447 8.10932 18.4962C8.33234 18.4037 8.49383 18.321 8.54224 18.2954C8.68677 18.2192 8.74208 18.0403 8.66587 17.8958C8.58986 17.7513 8.41082 17.6961 8.26628 17.7722C7.83849 17.9977 6.83148 18.3888 6.43918 18.1635C2.96895 15.854 1.89017 11.5768 1.56195 8.82695C2.40383 10.9674 3.79811 12.9745 5.57917 14.559C7.79708 16.5321 10.3606 17.6167 12.7438 17.6167C13.046 17.6167 14.239 17.4814 14.8722 17.5608C15.6439 17.6575 16.1276 17.9341 16.3112 18.3822C14.7507 19.0476 12.946 19.1788 10.943 18.769ZM18.6098 16.8624C18.5711 16.7658 18.5288 16.6736 18.4815 16.5878C18.3463 16.3426 18.1528 16.1454 17.9268 15.9856C19.6222 14.8504 20.849 13.2837 21.7309 11.6956C21.1413 13.3953 20.1712 15.3908 18.6098 16.8624Z" fill="#283182"/>
</svg>
