<svg width="173" height="85" viewBox="0 0 173 85" fill="none"
    xmlns="http://www.w3.org/2000/svg">
    <mask id="path-1-inside-1" fill="white">
        <path fill-rule="evenodd" clip-rule="evenodd" d="M43.9062 0C44.8428 0 45.741 0.372042 46.4032 1.03428C47.0655 1.69652 47.4375 2.5947 47.4375 3.53125V81.2188C47.4375 82.1553 47.0655 83.0535 46.4032 83.7157C45.741 84.378 44.8428 84.75 43.9062 84.75C42.9697 84.75 42.0715 84.378 41.4093 83.7157C40.747 83.0535 40.375 82.1553 40.375 81.2188V3.53125C40.375 2.5947 40.747 1.69652 41.4093 1.03428C42.0715 0.372042 42.9697 0 43.9062 0ZM29.7812 14.125C30.7178 14.125 31.616 14.497 32.2782 15.1593C32.9405 15.8215 33.3125 16.7197 33.3125 17.6562V67.0938C33.3125 68.0303 32.9405 68.9285 32.2782 69.5907C31.616 70.253 30.7178 70.625 29.7812 70.625C28.8447 70.625 27.9465 70.253 27.2843 69.5907C26.622 68.9285 26.25 68.0303 26.25 67.0938V17.6562C26.25 16.7197 26.622 15.8215 27.2843 15.1593C27.9465 14.497 28.8447 14.125 29.7812 14.125ZM58.0312 14.125C58.9678 14.125 59.866 14.497 60.5282 15.1593C61.1905 15.8215 61.5625 16.7197 61.5625 17.6562V67.0938C61.5625 68.0303 61.1905 68.9285 60.5282 69.5907C59.866 70.253 58.9678 70.625 58.0312 70.625C57.0947 70.625 56.1965 70.253 55.5343 69.5907C54.872 68.9285 54.5 68.0303 54.5 67.0938V17.6562C54.5 16.7197 54.872 15.8215 55.5343 15.1593C56.1965 14.497 57.0947 14.125 58.0312 14.125ZM72.1562 24.7188C73.0928 24.7188 73.991 25.0908 74.6532 25.753C75.3155 26.4153 75.6875 27.3135 75.6875 28.25V56.5C75.6875 57.4365 75.3155 58.3347 74.6532 58.997C73.991 59.6592 73.0928 60.0312 72.1562 60.0312C71.2197 60.0312 70.3215 59.6592 69.6593 58.997C68.997 58.3347 68.625 57.4365 68.625 56.5V28.25C68.625 27.3135 68.997 26.4153 69.6593 25.753C70.3215 25.0908 71.2197 24.7188 72.1562 24.7188Z"/>
        <path fill-rule="evenodd" clip-rule="evenodd" d="M128.906 0C129.843 0 130.741 0.372042 131.403 1.03428C132.065 1.69652 132.438 2.5947 132.438 3.53125V81.2188C132.438 82.1553 132.065 83.0535 131.403 83.7157C130.741 84.378 129.843 84.75 128.906 84.75C127.97 84.75 127.072 84.378 126.409 83.7157C125.747 83.0535 125.375 82.1553 125.375 81.2188V3.53125C125.375 2.5947 125.747 1.69652 126.409 1.03428C127.072 0.372042 127.97 0 128.906 0ZM114.781 14.125C115.718 14.125 116.616 14.497 117.278 15.1593C117.94 15.8215 118.312 16.7197 118.312 17.6562V67.0938C118.312 68.0303 117.94 68.9285 117.278 69.5907C116.616 70.253 115.718 70.625 114.781 70.625C113.845 70.625 112.947 70.253 112.284 69.5907C111.622 68.9285 111.25 68.0303 111.25 67.0938V17.6562C111.25 16.7197 111.622 15.8215 112.284 15.1593C112.947 14.497 113.845 14.125 114.781 14.125ZM143.031 14.125C143.968 14.125 144.866 14.497 145.528 15.1593C146.19 15.8215 146.562 16.7197 146.562 17.6562V67.0938C146.562 68.0303 146.19 68.9285 145.528 69.5907C144.866 70.253 143.968 70.625 143.031 70.625C142.095 70.625 141.197 70.253 140.534 69.5907C139.872 68.9285 139.5 68.0303 139.5 67.0938V17.6562C139.5 16.7197 139.872 15.8215 140.534 15.1593C141.197 14.497 142.095 14.125 143.031 14.125ZM100.656 24.7188C101.593 24.7188 102.491 25.0908 103.153 25.753C103.815 26.4153 104.188 27.3135 104.188 28.25V56.5C104.188 57.4365 103.815 58.3347 103.153 58.997C102.491 59.6592 101.593 60.0312 100.656 60.0312C99.7197 60.0312 98.8215 59.6592 98.1593 58.997C97.497 58.3347 97.125 57.4365 97.125 56.5V28.25C97.125 27.3135 97.497 26.4153 98.1593 25.753C98.8215 25.0908 99.7197 24.7188 100.656 24.7188ZM157.156 24.7188C158.093 24.7188 158.991 25.0908 159.653 25.753C160.315 26.4153 160.688 27.3135 160.688 28.25V56.5C160.688 57.4365 160.315 58.3347 159.653 58.997C158.991 59.6592 158.093 60.0312 157.156 60.0312C156.22 60.0312 155.322 59.6592 154.659 58.997C153.997 58.3347 153.625 57.4365 153.625 56.5V28.25C153.625 27.3135 153.997 26.4153 154.659 25.753C155.322 25.0908 156.22 24.7188 157.156 24.7188Z"/>
    </mask>
    <path d="M43.9062 0V7.0625V0ZM29.7812 14.125L29.7813 21.1875L29.7812 14.125ZM58.0312 14.125L58.0313 21.1875L58.0312 14.125ZM128.906 0V7.0625V0ZM114.781 14.125L114.781 21.1875L114.781 14.125ZM143.031 14.125L143.031 21.1875L143.031 14.125ZM43.9062 7.0625C42.9697 7.0625 42.0715 6.69046 41.4093 6.02822L51.3972 -3.95966C49.4104 -5.94638 46.7159 -7.0625 43.9062 -7.0625V7.0625ZM41.4093 6.02822C40.747 5.36597 40.375 4.46778 40.375 3.53125H54.5C54.5 0.721632 53.3839 -1.97293 51.3972 -3.95966L41.4093 6.02822ZM40.375 3.53125V81.2188H54.5V3.53125H40.375ZM40.375 81.2188C40.375 80.2822 40.747 79.384 41.4093 78.7218L51.3972 88.7097C53.3839 86.7229 54.5 84.0284 54.5 81.2188H40.375ZM41.4093 78.7218C42.0715 78.0595 42.9697 77.6875 43.9062 77.6875V91.8125C46.7159 91.8125 49.4104 90.6964 51.3972 88.7097L41.4093 78.7218ZM43.9062 77.6875C44.8428 77.6875 45.741 78.0595 46.4032 78.7218L36.4153 88.7097C38.4021 90.6964 41.0966 91.8125 43.9062 91.8125V77.6875ZM46.4032 78.7218C47.0655 79.384 47.4375 80.2822 47.4375 81.2188H33.3125C33.3125 84.0284 34.4286 86.7229 36.4153 88.7097L46.4032 78.7218ZM47.4375 81.2188V3.53125H33.3125V81.2188H47.4375ZM47.4375 3.53125C47.4375 4.46778 47.0655 5.36597 46.4032 6.02822L36.4153 -3.95966C34.4286 -1.97293 33.3125 0.721632 33.3125 3.53125H47.4375ZM46.4032 6.02822C45.741 6.69046 44.8428 7.0625 43.9062 7.0625L43.9063 -7.0625C41.0966 -7.0625 38.4021 -5.94638 36.4153 -3.95966L46.4032 6.02822ZM29.7813 21.1875C28.8447 21.1875 27.9465 20.8155 27.2843 20.1532L37.2722 10.1653C35.2855 8.17863 32.5909 7.0625 29.7812 7.0625L29.7813 21.1875ZM27.2843 20.1532C26.622 19.491 26.25 18.5928 26.25 17.6562H40.375C40.375 14.8466 39.2589 12.1521 37.2722 10.1653L27.2843 20.1532ZM26.25 17.6562V67.0938H40.375V17.6562H26.25ZM26.25 67.0938C26.25 66.1572 26.622 65.259 27.2843 64.5968L37.2722 74.5847C39.2589 72.5979 40.375 69.9034 40.375 67.0938H26.25ZM27.2843 64.5968C27.9465 63.9345 28.8447 63.5625 29.7812 63.5625V77.6875C32.5909 77.6875 35.2854 76.5714 37.2722 74.5847L27.2843 64.5968ZM29.7812 63.5625C30.7178 63.5625 31.616 63.9345 32.2782 64.5968L22.2903 74.5847C24.2771 76.5714 26.9716 77.6875 29.7812 77.6875V63.5625ZM32.2782 64.5968C32.9405 65.259 33.3125 66.1572 33.3125 67.0938H19.1875C19.1875 69.9034 20.3036 72.598 22.2903 74.5847L32.2782 64.5968ZM33.3125 67.0938V17.6562H19.1875V67.0938H33.3125ZM33.3125 17.6562C33.3125 18.5928 32.9405 19.491 32.2782 20.1532L22.2903 10.1653C20.3036 12.152 19.1875 14.8466 19.1875 17.6562H33.3125ZM32.2782 20.1532C31.616 20.8155 30.7178 21.1875 29.7812 21.1875L29.7813 7.0625C26.9716 7.0625 24.277 8.17863 22.2903 10.1653L32.2782 20.1532ZM58.0313 21.1875C57.0947 21.1875 56.1965 20.8155 55.5343 20.1532L65.5222 10.1653C63.5354 8.17862 60.8409 7.0625 58.0312 7.0625L58.0313 21.1875ZM55.5343 20.1532C54.872 19.491 54.5 18.5928 54.5 17.6562H68.625C68.625 14.8466 67.5089 12.1521 65.5222 10.1653L55.5343 20.1532ZM54.5 17.6562V67.0938H68.625V17.6562H54.5ZM54.5 67.0938C54.5 66.1572 54.872 65.259 55.5343 64.5968L65.5222 74.5847C67.5089 72.5979 68.625 69.9034 68.625 67.0938H54.5ZM55.5343 64.5968C56.1965 63.9345 57.0947 63.5625 58.0312 63.5625V77.6875C60.8409 77.6875 63.5354 76.5714 65.5222 74.5847L55.5343 64.5968ZM58.0312 63.5625C58.9678 63.5625 59.866 63.9345 60.5282 64.5968L50.5403 74.5847C52.5271 76.5714 55.2216 77.6875 58.0312 77.6875V63.5625ZM60.5282 64.5968C61.1905 65.259 61.5625 66.1572 61.5625 67.0938H47.4375C47.4375 69.9034 48.5536 72.5979 50.5403 74.5847L60.5282 64.5968ZM61.5625 67.0938V17.6562H47.4375V67.0938H61.5625ZM61.5625 17.6562C61.5625 18.5928 61.1905 19.491 60.5282 20.1532L50.5403 10.1653C48.5536 12.1521 47.4375 14.8466 47.4375 17.6562H61.5625ZM60.5282 20.1532C59.866 20.8155 58.9678 21.1875 58.0312 21.1875L58.0313 7.0625C55.2216 7.0625 52.5271 8.17862 50.5403 10.1653L60.5282 20.1532ZM72.1562 31.7812C71.2197 31.7812 70.3215 31.4092 69.6593 30.747L79.6472 20.7591C77.6605 18.7724 74.9659 17.6562 72.1562 17.6562V31.7812ZM69.6593 30.747C68.997 30.0847 68.625 29.1865 68.625 28.25H82.75C82.75 25.4404 81.6339 22.7458 79.6472 20.7591L69.6593 30.747ZM68.625 28.25V56.5H82.75V28.25H68.625ZM68.625 56.5C68.625 55.5635 68.997 54.6653 69.6593 54.003L79.6472 63.9909C81.6339 62.0042 82.75 59.3096 82.75 56.5H68.625ZM69.6593 54.003C70.3215 53.3408 71.2197 52.9688 72.1562 52.9688V67.0938C74.9659 67.0938 77.6604 65.9776 79.6472 63.9909L69.6593 54.003ZM72.1562 52.9688C73.0928 52.9688 73.991 53.3408 74.6532 54.003L64.6653 63.9909C66.6521 65.9776 69.3466 67.0938 72.1562 67.0938V52.9688ZM74.6532 54.003C75.3155 54.6653 75.6875 55.5635 75.6875 56.5H61.5625C61.5625 59.3096 62.6786 62.0042 64.6653 63.9909L74.6532 54.003ZM75.6875 56.5V28.25H61.5625V56.5H75.6875ZM75.6875 28.25C75.6875 29.1865 75.3155 30.0847 74.6532 30.747L64.6653 20.7591C62.6786 22.7458 61.5625 25.4404 61.5625 28.25H75.6875ZM74.6532 30.747C73.991 31.4092 73.0928 31.7812 72.1562 31.7812V17.6562C69.3466 17.6562 66.652 18.7724 64.6653 20.7591L74.6532 30.747ZM128.906 7.0625C127.97 7.0625 127.072 6.69047 126.409 6.02822L136.397 -3.95966C134.41 -5.94638 131.716 -7.0625 128.906 -7.0625V7.0625ZM126.409 6.02822C125.747 5.36596 125.375 4.46776 125.375 3.53125H139.5C139.5 0.721652 138.384 -1.97292 136.397 -3.95966L126.409 6.02822ZM125.375 3.53125V81.2188H139.5V3.53125H125.375ZM125.375 81.2188C125.375 80.2822 125.747 79.384 126.409 78.7218L136.397 88.7097C138.384 86.7229 139.5 84.0283 139.5 81.2188H125.375ZM126.409 78.7218C127.072 78.0595 127.97 77.6875 128.906 77.6875V91.8125C131.716 91.8125 134.41 90.6964 136.397 88.7097L126.409 78.7218ZM128.906 77.6875C129.843 77.6875 130.741 78.0595 131.403 78.7218L121.415 88.7097C123.402 90.6964 126.097 91.8125 128.906 91.8125V77.6875ZM131.403 78.7218C132.065 79.384 132.438 80.2822 132.438 81.2188H118.312C118.312 84.0283 119.429 86.7229 121.415 88.7097L131.403 78.7218ZM132.438 81.2188V3.53125H118.312V81.2188H132.438ZM132.438 3.53125C132.438 4.46776 132.065 5.36596 131.403 6.02822L121.415 -3.95966C119.429 -1.97292 118.312 0.721652 118.312 3.53125H132.438ZM131.403 6.02822C130.741 6.69047 129.843 7.0625 128.906 7.0625L128.906 -7.0625C126.097 -7.0625 123.402 -5.94638 121.415 -3.95966L131.403 6.02822ZM114.781 21.1875C113.845 21.1875 112.947 20.8155 112.284 20.1532L122.272 10.1653C120.285 8.17863 117.591 7.0625 114.781 7.0625L114.781 21.1875ZM112.284 20.1532C111.622 19.491 111.25 18.5928 111.25 17.6562H125.375C125.375 14.8466 124.259 12.1521 122.272 10.1653L112.284 20.1532ZM111.25 17.6562V67.0938H125.375V17.6562H111.25ZM111.25 67.0938C111.25 66.1572 111.622 65.259 112.284 64.5968L122.272 74.5847C124.259 72.5979 125.375 69.9034 125.375 67.0938H111.25ZM112.284 64.5968C112.947 63.9345 113.845 63.5625 114.781 63.5625V77.6875C117.591 77.6875 120.285 76.5714 122.272 74.5847L112.284 64.5968ZM114.781 63.5625C115.718 63.5625 116.616 63.9345 117.278 64.5968L107.29 74.5847C109.277 76.5714 111.972 77.6875 114.781 77.6875V63.5625ZM117.278 64.5968C117.94 65.259 118.312 66.1572 118.312 67.0938H104.188C104.188 69.9034 105.304 72.5979 107.29 74.5847L117.278 64.5968ZM118.312 67.0938V17.6562H104.188V67.0938H118.312ZM118.312 17.6562C118.312 18.5928 117.94 19.491 117.278 20.1532L107.29 10.1653C105.304 12.1521 104.188 14.8466 104.188 17.6562H118.312ZM117.278 20.1532C116.616 20.8155 115.718 21.1875 114.781 21.1875L114.781 7.0625C111.972 7.0625 109.277 8.17863 107.29 10.1653L117.278 20.1532ZM143.031 21.1875C142.095 21.1875 141.197 20.8155 140.534 20.1532L150.522 10.1653C148.535 8.17862 145.841 7.0625 143.031 7.0625L143.031 21.1875ZM140.534 20.1532C139.872 19.491 139.5 18.5928 139.5 17.6562H153.625C153.625 14.8467 152.509 12.1521 150.522 10.1653L140.534 20.1532ZM139.5 17.6562V67.0938H153.625V17.6562H139.5ZM139.5 67.0938C139.5 66.1572 139.872 65.259 140.534 64.5968L150.522 74.5847C152.509 72.5979 153.625 69.9033 153.625 67.0938H139.5ZM140.534 64.5968C141.197 63.9345 142.095 63.5625 143.031 63.5625V77.6875C145.841 77.6875 148.535 76.5714 150.522 74.5847L140.534 64.5968ZM143.031 63.5625C143.968 63.5625 144.866 63.9345 145.528 64.5968L135.54 74.5847C137.527 76.5714 140.222 77.6875 143.031 77.6875V63.5625ZM145.528 64.5968C146.19 65.259 146.562 66.1572 146.562 67.0938H132.438C132.438 69.9033 133.554 72.5979 135.54 74.5847L145.528 64.5968ZM146.562 67.0938V17.6562H132.438V67.0938H146.562ZM146.562 17.6562C146.562 18.5928 146.19 19.491 145.528 20.1532L135.54 10.1653C133.554 12.1521 132.438 14.8467 132.438 17.6562H146.562ZM145.528 20.1532C144.866 20.8155 143.968 21.1875 143.031 21.1875L143.031 7.0625C140.222 7.0625 137.527 8.17862 135.54 10.1653L145.528 20.1532ZM100.656 31.7812C99.7197 31.7812 98.8215 31.4092 98.1593 30.747L108.147 20.7591C106.16 18.7724 103.466 17.6562 100.656 17.6562V31.7812ZM98.1593 30.747C97.497 30.0847 97.125 29.1865 97.125 28.25H111.25C111.25 25.4404 110.134 22.7458 108.147 20.7591L98.1593 30.747ZM97.125 28.25V56.5H111.25V28.25H97.125ZM97.125 56.5C97.125 55.5635 97.497 54.6653 98.1593 54.003L108.147 63.9909C110.134 62.0042 111.25 59.3096 111.25 56.5H97.125ZM98.1593 54.003C98.8215 53.3408 99.7197 52.9688 100.656 52.9688V67.0938C103.466 67.0938 106.16 65.9776 108.147 63.9909L98.1593 54.003ZM100.656 52.9688C101.593 52.9688 102.491 53.3408 103.153 54.003L93.1653 63.9909C95.1521 65.9776 97.8466 67.0938 100.656 67.0938V52.9688ZM103.153 54.003C103.815 54.6653 104.188 55.5635 104.188 56.5H90.0625C90.0625 59.3096 91.1786 62.0042 93.1653 63.9909L103.153 54.003ZM104.188 56.5V28.25H90.0625V56.5H104.188ZM104.188 28.25C104.188 29.1865 103.815 30.0847 103.153 30.747L93.1653 20.7591C91.1786 22.7458 90.0625 25.4404 90.0625 28.25H104.188ZM103.153 30.747C102.491 31.4092 101.593 31.7812 100.656 31.7812V17.6562C97.8466 17.6562 95.152 18.7724 93.1653 20.7591L103.153 30.747ZM157.156 31.7812C156.22 31.7812 155.322 31.4092 154.659 30.747L164.647 20.7591C162.66 18.7724 159.966 17.6562 157.156 17.6562V31.7812ZM154.659 30.747C153.997 30.0847 153.625 29.1865 153.625 28.25H167.75C167.75 25.4404 166.634 22.7458 164.647 20.7591L154.659 30.747ZM153.625 28.25V56.5H167.75V28.25H153.625ZM153.625 56.5C153.625 55.5635 153.997 54.6653 154.659 54.003L164.647 63.9909C166.634 62.0042 167.75 59.3096 167.75 56.5H153.625ZM154.659 54.003C155.322 53.3408 156.22 52.9688 157.156 52.9688V67.0938C159.966 67.0938 162.66 65.9777 164.647 63.9909L154.659 54.003ZM157.156 52.9688C158.093 52.9688 158.991 53.3408 159.653 54.003L149.665 63.9909C151.652 65.9777 154.347 67.0938 157.156 67.0938V52.9688ZM159.653 54.003C160.315 54.6653 160.688 55.5635 160.688 56.5H146.562C146.562 59.3096 147.679 62.0042 149.665 63.9909L159.653 54.003ZM160.688 56.5V28.25H146.562V56.5H160.688ZM160.688 28.25C160.688 29.1865 160.315 30.0847 159.653 30.747L149.665 20.7591C147.679 22.7458 146.562 25.4404 146.562 28.25H160.688ZM159.653 30.747C158.991 31.4092 158.093 31.7812 157.156 31.7812V17.6562C154.347 17.6562 151.652 18.7724 149.665 20.7591L159.653 30.747Z" fill="#575757" fill-opacity="0.4" mask="url(#path-1-inside-1)"/>
    <mask id="path-3-inside-2" fill="white">
        <path d="M20.1532 25.753C19.491 25.0908 18.5928 24.7188 17.6562 24.7188C16.7197 24.7188 15.8215 25.0908 15.1593 25.753C14.497 26.4153 14.125 27.3135 14.125 28.25V56.5C14.125 57.4365 14.497 58.3347 15.1593 58.997C15.8215 59.6592 16.7197 60.0312 17.6562 60.0312C18.5928 60.0312 19.491 59.6592 20.1532 58.997C20.8155 58.3347 21.1875 57.4365 21.1875 56.5V28.25C21.1875 27.3135 20.8155 26.4153 20.1532 25.753Z"/>
        <path d="M6.02822 32.8155C5.36598 32.1533 4.4678 31.7812 3.53125 31.7812C2.5947 31.7812 1.69652 32.1533 1.03428 32.8155C0.372042 33.4778 0 34.376 0 35.3125V49.4375C0 50.374 0.372042 51.2722 1.03428 51.9345C1.69652 52.5967 2.5947 52.9688 3.53125 52.9688C4.4678 52.9688 5.36598 52.5967 6.02822 51.9345C6.69046 51.2722 7.0625 50.374 7.0625 49.4375V35.3125C7.0625 34.376 6.69046 33.4778 6.02822 32.8155Z"/>
    </mask>
    <path d="M20.1532 25.753L25.1472 20.7591L25.1472 20.7591L20.1532 25.753ZM15.1593 25.753L10.1653 20.7591L10.1653 20.7591L15.1593 25.753ZM6.02822 32.8155L11.0222 27.8216L11.0222 27.8216L6.02822 32.8155ZM1.03428 51.9345L-3.95966 56.9284L-3.95966 56.9284L1.03428 51.9345ZM1.03428 32.8155L-3.95966 27.8216L-3.95966 27.8216L1.03428 32.8155ZM17.6562 31.7812C16.7197 31.7812 15.8215 31.4092 15.1593 30.747L25.1472 20.7591C23.1605 18.7724 20.4659 17.6562 17.6562 17.6562V31.7812ZM15.1593 30.747C14.497 30.0847 14.125 29.1866 14.125 28.25H28.25C28.25 25.4403 27.1339 22.7458 25.1472 20.7591L15.1593 30.747ZM14.125 28.25V56.5H28.25V28.25H14.125ZM14.125 56.5C14.125 55.5634 14.497 54.6653 15.1593 54.003L25.1472 63.9909C27.1339 62.0042 28.25 59.3096 28.25 56.5H14.125ZM15.1593 54.003C15.8215 53.3408 16.7197 52.9688 17.6562 52.9688V67.0938C20.4659 67.0938 23.1604 65.9776 25.1472 63.9909L15.1593 54.003ZM17.6562 52.9688C18.5928 52.9688 19.491 53.3408 20.1532 54.003L10.1653 63.9909C12.1521 65.9776 14.8466 67.0938 17.6562 67.0938V52.9688ZM20.1532 54.003C20.8155 54.6653 21.1875 55.5635 21.1875 56.5H7.0625C7.0625 59.3096 8.17862 62.0042 10.1653 63.9909L20.1532 54.003ZM21.1875 56.5V28.25H7.0625V56.5H21.1875ZM21.1875 28.25C21.1875 29.1866 20.8155 30.0847 20.1532 30.747L10.1653 20.7591C8.17863 22.7458 7.0625 25.4404 7.0625 28.25H21.1875ZM20.1532 30.747C19.491 31.4092 18.5928 31.7812 17.6562 31.7812V17.6562C14.8466 17.6562 12.152 18.7724 10.1653 20.7591L20.1532 30.747ZM3.53125 38.8438C2.5947 38.8438 1.69652 38.4717 1.03428 37.8095L11.0222 27.8216C9.03545 25.8349 6.34089 24.7188 3.53125 24.7188V38.8438ZM1.03428 37.8095C0.372043 37.1472 0 36.2491 0 35.3125H14.125C14.125 32.5029 13.0089 29.8083 11.0222 27.8216L1.03428 37.8095ZM0 35.3125V49.4375H14.125V35.3125H0ZM0 49.4375C0 48.501 0.372036 47.6028 1.03428 46.9405L11.0222 56.9284C13.0089 54.9417 14.125 52.2471 14.125 49.4375H0ZM1.03428 46.9405C1.69653 46.2783 2.59472 45.9062 3.53125 45.9062V60.0312C6.34087 60.0312 9.03544 58.9151 11.0222 56.9284L1.03428 46.9405ZM3.53125 45.9062C4.46778 45.9062 5.36597 46.2783 6.02822 46.9405L-3.95966 56.9284C-1.97294 58.9151 0.721629 60.0312 3.53125 60.0312V45.9062ZM6.02822 46.9405C6.69046 47.6028 7.0625 48.501 7.0625 49.4375H-7.0625C-7.0625 52.2471 -5.94638 54.9417 -3.95966 56.9284L6.02822 46.9405ZM7.0625 49.4375V35.3125H-7.0625V49.4375H7.0625ZM7.0625 35.3125C7.0625 36.249 6.69046 37.1472 6.02822 37.8095L-3.95966 27.8216C-5.94637 29.8083 -7.0625 32.5029 -7.0625 35.3125H7.0625ZM6.02822 37.8095C5.36598 38.4717 4.4678 38.8438 3.53125 38.8438V24.7188C0.721612 24.7188 -1.97295 25.8349 -3.95966 27.8216L6.02822 37.8095Z" fill="#575757" fill-opacity="0.4" mask="url(#path-3-inside-2)"/>
    <line x1="169.5" y1="31.5" x2="169.5" y2="52.5" stroke="#575757" stroke-opacity="0.4" stroke-width="7" stroke-linecap="round" stroke-linejoin="round"/>
    <line x1="86.5" y1="31.5" x2="86.5" y2="52.5" stroke="#575757" stroke-opacity="0.4" stroke-width="7" stroke-linecap="round" stroke-linejoin="round"/>
</svg>
