<svg width="185" height="85" viewBox="0 0 185 85" fill="none" xmlns="http://www.w3.org/2000/svg">
<mask id="path-1-inside-1" fill="white">
<path fill-rule="evenodd" clip-rule="evenodd" d="M43.9062 0C44.8428 0 45.741 0.372042 46.4032 1.03428C47.0655 1.69652 47.4375 2.5947 47.4375 3.53125V81.2188C47.4375 82.1553 47.0655 83.0535 46.4032 83.7157C45.741 84.378 44.8428 84.75 43.9062 84.75C42.9697 84.75 42.0715 84.378 41.4093 83.7157C40.747 83.0535 40.375 82.1553 40.375 81.2188V3.53125C40.375 2.5947 40.747 1.69652 41.4093 1.03428C42.0715 0.372042 42.9697 0 43.9062 0ZM29.7812 14.125C30.7178 14.125 31.616 14.497 32.2782 15.1593C32.9405 15.8215 33.3125 16.7197 33.3125 17.6562V67.0938C33.3125 68.0303 32.9405 68.9285 32.2782 69.5907C31.616 70.253 30.7178 70.625 29.7812 70.625C28.8447 70.625 27.9465 70.253 27.2843 69.5907C26.622 68.9285 26.25 68.0303 26.25 67.0938V17.6562C26.25 16.7197 26.622 15.8215 27.2843 15.1593C27.9465 14.497 28.8447 14.125 29.7812 14.125ZM58.0312 14.125C58.9678 14.125 59.866 14.497 60.5282 15.1593C61.1905 15.8215 61.5625 16.7197 61.5625 17.6562V67.0938C61.5625 68.0303 61.1905 68.9285 60.5282 69.5907C59.866 70.253 58.9678 70.625 58.0312 70.625C57.0947 70.625 56.1965 70.253 55.5343 69.5907C54.872 68.9285 54.5 68.0303 54.5 67.0938V17.6562C54.5 16.7197 54.872 15.8215 55.5343 15.1593C56.1965 14.497 57.0947 14.125 58.0312 14.125ZM72.1562 24.7188C73.0928 24.7188 73.991 25.0908 74.6532 25.753C75.3155 26.4153 75.6875 27.3135 75.6875 28.25V56.5C75.6875 57.4365 75.3155 58.3347 74.6532 58.997C73.991 59.6592 73.0928 60.0312 72.1562 60.0312C71.2197 60.0312 70.3215 59.6592 69.6593 58.997C68.997 58.3347 68.625 57.4365 68.625 56.5V28.25C68.625 27.3135 68.997 26.4153 69.6593 25.753C70.3215 25.0908 71.2197 24.7188 72.1562 24.7188ZM86.2812 31.7812C87.2178 31.7812 88.116 32.1533 88.7782 32.8155C89.4405 33.4778 89.8125 34.376 89.8125 35.3125V49.4375C89.8125 50.374 89.4405 51.2722 88.7782 51.9345C88.116 52.5967 87.2178 52.9688 86.2812 52.9688C85.3447 52.9688 84.4465 52.5967 83.7843 51.9345C83.122 51.2722 82.75 50.374 82.75 49.4375V35.3125C82.75 34.376 83.122 33.4778 83.7843 32.8155C84.4465 32.1533 85.3447 31.7812 86.2812 31.7812Z"/>
<path fill-rule="evenodd" clip-rule="evenodd" d="M128.906 0C129.843 0 130.741 0.372042 131.403 1.03428C132.065 1.69652 132.438 2.5947 132.438 3.53125V81.2188C132.438 82.1553 132.065 83.0535 131.403 83.7157C130.741 84.378 129.843 84.75 128.906 84.75C127.97 84.75 127.072 84.378 126.409 83.7157C125.747 83.0535 125.375 82.1553 125.375 81.2188V3.53125C125.375 2.5947 125.747 1.69652 126.409 1.03428C127.072 0.372042 127.97 0 128.906 0ZM114.781 14.125C115.718 14.125 116.616 14.497 117.278 15.1593C117.94 15.8215 118.312 16.7197 118.312 17.6562V67.0938C118.312 68.0303 117.94 68.9285 117.278 69.5907C116.616 70.253 115.718 70.625 114.781 70.625C113.845 70.625 112.947 70.253 112.284 69.5907C111.622 68.9285 111.25 68.0303 111.25 67.0938V17.6562C111.25 16.7197 111.622 15.8215 112.284 15.1593C112.947 14.497 113.845 14.125 114.781 14.125ZM143.031 14.125C143.968 14.125 144.866 14.497 145.528 15.1593C146.19 15.8215 146.562 16.7197 146.562 17.6562V67.0938C146.562 68.0303 146.19 68.9285 145.528 69.5907C144.866 70.253 143.968 70.625 143.031 70.625C142.095 70.625 141.197 70.253 140.534 69.5907C139.872 68.9285 139.5 68.0303 139.5 67.0938V17.6562C139.5 16.7197 139.872 15.8215 140.534 15.1593C141.197 14.497 142.095 14.125 143.031 14.125ZM100.656 24.7188C101.593 24.7188 102.491 25.0908 103.153 25.753C103.815 26.4153 104.188 27.3135 104.188 28.25V56.5C104.188 57.4365 103.815 58.3347 103.153 58.997C102.491 59.6592 101.593 60.0312 100.656 60.0312C99.7197 60.0312 98.8215 59.6592 98.1593 58.997C97.497 58.3347 97.125 57.4365 97.125 56.5V28.25C97.125 27.3135 97.497 26.4153 98.1593 25.753C98.8215 25.0908 99.7197 24.7188 100.656 24.7188ZM157.156 24.7188C158.093 24.7188 158.991 25.0908 159.653 25.753C160.315 26.4153 160.688 27.3135 160.688 28.25V56.5C160.688 57.4365 160.315 58.3347 159.653 58.997C158.991 59.6592 158.093 60.0312 157.156 60.0312C156.22 60.0312 155.322 59.6592 154.659 58.997C153.997 58.3347 153.625 57.4365 153.625 56.5V28.25C153.625 27.3135 153.997 26.4153 154.659 25.753C155.322 25.0908 156.22 24.7188 157.156 24.7188ZM86.5312 31.7812C87.4678 31.7812 88.366 32.1533 89.0282 32.8155C89.6905 33.4778 90.0625 34.376 90.0625 35.3125V49.4375C90.0625 50.374 89.6905 51.2722 89.0282 51.9345C88.366 52.5967 87.4678 52.9688 86.5312 52.9688C85.5947 52.9688 84.6965 52.5967 84.0343 51.9345C83.372 51.2722 83 50.374 83 49.4375V35.3125C83 34.376 83.372 33.4778 84.0343 32.8155C84.6965 32.1533 85.5947 31.7812 86.5312 31.7812Z"/>
</mask>
<path fill-rule="evenodd" clip-rule="evenodd" d="M43.9062 0C44.8428 0 45.741 0.372042 46.4032 1.03428C47.0655 1.69652 47.4375 2.5947 47.4375 3.53125V81.2188C47.4375 82.1553 47.0655 83.0535 46.4032 83.7157C45.741 84.378 44.8428 84.75 43.9062 84.75C42.9697 84.75 42.0715 84.378 41.4093 83.7157C40.747 83.0535 40.375 82.1553 40.375 81.2188V3.53125C40.375 2.5947 40.747 1.69652 41.4093 1.03428C42.0715 0.372042 42.9697 0 43.9062 0ZM29.7812 14.125C30.7178 14.125 31.616 14.497 32.2782 15.1593C32.9405 15.8215 33.3125 16.7197 33.3125 17.6562V67.0938C33.3125 68.0303 32.9405 68.9285 32.2782 69.5907C31.616 70.253 30.7178 70.625 29.7812 70.625C28.8447 70.625 27.9465 70.253 27.2843 69.5907C26.622 68.9285 26.25 68.0303 26.25 67.0938V17.6562C26.25 16.7197 26.622 15.8215 27.2843 15.1593C27.9465 14.497 28.8447 14.125 29.7812 14.125ZM58.0312 14.125C58.9678 14.125 59.866 14.497 60.5282 15.1593C61.1905 15.8215 61.5625 16.7197 61.5625 17.6562V67.0938C61.5625 68.0303 61.1905 68.9285 60.5282 69.5907C59.866 70.253 58.9678 70.625 58.0312 70.625C57.0947 70.625 56.1965 70.253 55.5343 69.5907C54.872 68.9285 54.5 68.0303 54.5 67.0938V17.6562C54.5 16.7197 54.872 15.8215 55.5343 15.1593C56.1965 14.497 57.0947 14.125 58.0312 14.125ZM72.1562 24.7188C73.0928 24.7188 73.991 25.0908 74.6532 25.753C75.3155 26.4153 75.6875 27.3135 75.6875 28.25V56.5C75.6875 57.4365 75.3155 58.3347 74.6532 58.997C73.991 59.6592 73.0928 60.0312 72.1562 60.0312C71.2197 60.0312 70.3215 59.6592 69.6593 58.997C68.997 58.3347 68.625 57.4365 68.625 56.5V28.25C68.625 27.3135 68.997 26.4153 69.6593 25.753C70.3215 25.0908 71.2197 24.7188 72.1562 24.7188ZM86.2812 31.7812C87.2178 31.7812 88.116 32.1533 88.7782 32.8155C89.4405 33.4778 89.8125 34.376 89.8125 35.3125V49.4375C89.8125 50.374 89.4405 51.2722 88.7782 51.9345C88.116 52.5967 87.2178 52.9688 86.2812 52.9688C85.3447 52.9688 84.4465 52.5967 83.7843 51.9345C83.122 51.2722 82.75 50.374 82.75 49.4375V35.3125C82.75 34.376 83.122 33.4778 83.7843 32.8155C84.4465 32.1533 85.3447 31.7812 86.2812 31.7812Z" stroke="#575757" stroke-opacity="0.4" stroke-width="14.125" mask="url(#path-1-inside-1)"/>
<path fill-rule="evenodd" clip-rule="evenodd" d="M128.906 0C129.843 0 130.741 0.372042 131.403 1.03428C132.065 1.69652 132.438 2.5947 132.438 3.53125V81.2188C132.438 82.1553 132.065 83.0535 131.403 83.7157C130.741 84.378 129.843 84.75 128.906 84.75C127.97 84.75 127.072 84.378 126.409 83.7157C125.747 83.0535 125.375 82.1553 125.375 81.2188V3.53125C125.375 2.5947 125.747 1.69652 126.409 1.03428C127.072 0.372042 127.97 0 128.906 0ZM114.781 14.125C115.718 14.125 116.616 14.497 117.278 15.1593C117.94 15.8215 118.312 16.7197 118.312 17.6562V67.0938C118.312 68.0303 117.94 68.9285 117.278 69.5907C116.616 70.253 115.718 70.625 114.781 70.625C113.845 70.625 112.947 70.253 112.284 69.5907C111.622 68.9285 111.25 68.0303 111.25 67.0938V17.6562C111.25 16.7197 111.622 15.8215 112.284 15.1593C112.947 14.497 113.845 14.125 114.781 14.125ZM143.031 14.125C143.968 14.125 144.866 14.497 145.528 15.1593C146.19 15.8215 146.562 16.7197 146.562 17.6562V67.0938C146.562 68.0303 146.19 68.9285 145.528 69.5907C144.866 70.253 143.968 70.625 143.031 70.625C142.095 70.625 141.197 70.253 140.534 69.5907C139.872 68.9285 139.5 68.0303 139.5 67.0938V17.6562C139.5 16.7197 139.872 15.8215 140.534 15.1593C141.197 14.497 142.095 14.125 143.031 14.125ZM100.656 24.7188C101.593 24.7188 102.491 25.0908 103.153 25.753C103.815 26.4153 104.188 27.3135 104.188 28.25V56.5C104.188 57.4365 103.815 58.3347 103.153 58.997C102.491 59.6592 101.593 60.0312 100.656 60.0312C99.7197 60.0312 98.8215 59.6592 98.1593 58.997C97.497 58.3347 97.125 57.4365 97.125 56.5V28.25C97.125 27.3135 97.497 26.4153 98.1593 25.753C98.8215 25.0908 99.7197 24.7188 100.656 24.7188ZM157.156 24.7188C158.093 24.7188 158.991 25.0908 159.653 25.753C160.315 26.4153 160.688 27.3135 160.688 28.25V56.5C160.688 57.4365 160.315 58.3347 159.653 58.997C158.991 59.6592 158.093 60.0312 157.156 60.0312C156.22 60.0312 155.322 59.6592 154.659 58.997C153.997 58.3347 153.625 57.4365 153.625 56.5V28.25C153.625 27.3135 153.997 26.4153 154.659 25.753C155.322 25.0908 156.22 24.7188 157.156 24.7188ZM86.5312 31.7812C87.4678 31.7812 88.366 32.1533 89.0282 32.8155C89.6905 33.4778 90.0625 34.376 90.0625 35.3125V49.4375C90.0625 50.374 89.6905 51.2722 89.0282 51.9345C88.366 52.5967 87.4678 52.9688 86.5312 52.9688C85.5947 52.9688 84.6965 52.5967 84.0343 51.9345C83.372 51.2722 83 50.374 83 49.4375V35.3125C83 34.376 83.372 33.4778 84.0343 32.8155C84.6965 32.1533 85.5947 31.7812 86.5312 31.7812Z" stroke="#575757" stroke-opacity="0.4" stroke-width="14.125" mask="url(#path-1-inside-1)"/>
<mask id="path-2-inside-2" fill="white">
<path d="M20.1532 25.753C19.491 25.0908 18.5928 24.7188 17.6562 24.7188C16.7197 24.7188 15.8215 25.0908 15.1593 25.753C14.497 26.4153 14.125 27.3135 14.125 28.25V56.5C14.125 57.4365 14.497 58.3347 15.1593 58.997C15.8215 59.6592 16.7197 60.0312 17.6562 60.0312C18.5928 60.0312 19.491 59.6592 20.1532 58.997C20.8155 58.3347 21.1875 57.4365 21.1875 56.5V28.25C21.1875 27.3135 20.8155 26.4153 20.1532 25.753Z"/>
<path d="M6.02822 32.8155C5.36598 32.1533 4.4678 31.7812 3.53125 31.7812C2.5947 31.7812 1.69652 32.1533 1.03428 32.8155C0.372042 33.4778 0 34.376 0 35.3125V49.4375C0 50.374 0.372042 51.2722 1.03428 51.9345C1.69652 52.5967 2.5947 52.9688 3.53125 52.9688C4.4678 52.9688 5.36598 52.5967 6.02822 51.9345C6.69046 51.2722 7.0625 50.374 7.0625 49.4375V35.3125C7.0625 34.376 6.69046 33.4778 6.02822 32.8155Z"/>
</mask>
<path d="M20.1532 25.753L25.1472 20.7591V20.7591L20.1532 25.753ZM15.1593 25.753L10.1653 20.7591V20.7591L15.1593 25.753ZM6.02822 32.8155L11.0222 27.8216L11.0222 27.8216L6.02822 32.8155ZM1.03428 51.9345L-3.95966 56.9284L-3.95966 56.9284L1.03428 51.9345ZM1.03428 32.8155L-3.95966 27.8216L-3.95966 27.8216L1.03428 32.8155ZM17.6562 31.7812C16.7197 31.7812 15.8215 31.4092 15.1593 30.747L25.1472 20.7591C23.1605 18.7724 20.4659 17.6562 17.6562 17.6562V31.7812ZM15.1593 30.747C14.497 30.0847 14.125 29.1866 14.125 28.25H28.25C28.25 25.4403 27.1339 22.7458 25.1472 20.7591L15.1593 30.747ZM14.125 28.25V56.5H28.25V28.25H14.125ZM14.125 56.5C14.125 55.5634 14.497 54.6653 15.1593 54.003L25.1472 63.9909C27.1339 62.0042 28.25 59.3096 28.25 56.5H14.125ZM15.1593 54.003C15.8215 53.3408 16.7197 52.9688 17.6562 52.9688V67.0938C20.4659 67.0938 23.1604 65.9776 25.1472 63.9909L15.1593 54.003ZM17.6562 52.9688C18.5928 52.9688 19.491 53.3408 20.1532 54.003L10.1653 63.9909C12.1521 65.9776 14.8466 67.0938 17.6562 67.0938V52.9688ZM20.1532 54.003C20.8155 54.6653 21.1875 55.5635 21.1875 56.5H7.0625C7.0625 59.3096 8.17862 62.0042 10.1653 63.9909L20.1532 54.003ZM21.1875 56.5V28.25H7.0625V56.5H21.1875ZM21.1875 28.25C21.1875 29.1866 20.8155 30.0847 20.1532 30.747L10.1653 20.7591C8.17863 22.7458 7.0625 25.4404 7.0625 28.25H21.1875ZM20.1532 30.747C19.491 31.4092 18.5928 31.7812 17.6562 31.7812V17.6562C14.8466 17.6562 12.152 18.7724 10.1653 20.7591L20.1532 30.747ZM3.53125 38.8438C2.5947 38.8438 1.69652 38.4717 1.03428 37.8095L11.0222 27.8216C9.03545 25.8349 6.34089 24.7188 3.53125 24.7188V38.8438ZM1.03428 37.8095C0.372043 37.1472 0 36.2491 0 35.3125H14.125C14.125 32.5029 13.0089 29.8083 11.0222 27.8216L1.03428 37.8095ZM0 35.3125V49.4375H14.125V35.3125H0ZM0 49.4375C0 48.501 0.372036 47.6028 1.03428 46.9405L11.0222 56.9284C13.0089 54.9417 14.125 52.2471 14.125 49.4375H0ZM1.03428 46.9405C1.69653 46.2783 2.59472 45.9062 3.53125 45.9062V60.0312C6.34087 60.0312 9.03544 58.9151 11.0222 56.9284L1.03428 46.9405ZM3.53125 45.9062C4.46778 45.9062 5.36597 46.2783 6.02822 46.9405L-3.95966 56.9284C-1.97294 58.9151 0.721629 60.0312 3.53125 60.0312V45.9062ZM6.02822 46.9405C6.69046 47.6028 7.0625 48.501 7.0625 49.4375H-7.0625C-7.0625 52.2471 -5.94638 54.9417 -3.95966 56.9284L6.02822 46.9405ZM7.0625 49.4375V35.3125H-7.0625V49.4375H7.0625ZM7.0625 35.3125C7.0625 36.249 6.69046 37.1472 6.02822 37.8095L-3.95966 27.8216C-5.94637 29.8083 -7.0625 32.5029 -7.0625 35.3125H7.0625ZM6.02822 37.8095C5.36598 38.4717 4.4678 38.8438 3.53125 38.8438V24.7188C0.721612 24.7188 -1.97295 25.8349 -3.95966 27.8216L6.02822 37.8095Z" fill="#C9E084" mask="url(#path-2-inside-2)"/>
<line x1="169.5" y1="31.5" x2="169.5" y2="52.5" stroke="#575757" stroke-opacity="0.4" stroke-width="7" stroke-linecap="round" stroke-linejoin="round"/>
<line x1="181.5" y1="18.5" x2="181.5" y2="65.5" stroke="#575757" stroke-opacity="0.4" stroke-width="7" stroke-linecap="round" stroke-linejoin="round"/>
</svg>
